<svg xmlns="http://www.w3.org/2000/svg" viewBox="0 0 64 64"><path d="M22.4 52.9h-.1c-.3-.1-.4-.3-.3-.6l3.5-12.6c.1-.3.4-.4.6-.3.3.1.4.3.3.6l-3.5 12.6c-.1.1-.3.3-.5.3zM32 35.1c-6.6 0-12-5.4-12-12s5.4-12 12-12 12 5.4 12 12-5.4 12-12 12zm0-23c-6.1 0-11 4.9-11 11s4.9 11 11 11 11-4.9 11-11-4.9-11-11-11z"/><path d="M28.3 42.2c-.9 0-1.7-.4-2.2-1.2l-1-1.5c-.3-.5-.9-.8-1.5-.7l-1.8.1c-1.4.1-2.6-.9-2.8-2.3l-.3-1.8c-.1-.6-.5-1.1-1-1.3l-1.7-.7c-1.3-.5-2-1.9-1.6-3.3l.5-1.7c.2-.6 0-1.2-.4-1.6l-1.2-1.4c-.9-1-.9-2.6 0-3.6l1.2-1.3c.4-.4.5-1.1.4-1.6l-.5-1.7c-.4-1.3.3-2.7 1.6-3.3l1.7-.7c.5-.2.9-.7 1-1.3l.3-1.8c.2-1.4 1.4-2.3 2.8-2.3l1.8.1c.6 0 1.2-.2 1.5-.7l1-1.5c.8-1.1 2.3-1.5 3.5-.8l1.6.9c.5.3 1.1.3 1.7 0l1.6-.9c1.2-.7 2.7-.3 3.5.8l1 1.5c.3.5.9.8 1.5.7l1.8-.1c1.4-.1 2.6.9 2.8 2.3l.3 1.8c.1.6.5 1.1 1 1.3l1.7.7c1.3.5 2 1.9 1.6 3.3l-.5 1.7c-.2.6 0 1.2.4 1.6l1.2 1.3c.9 1 .9 2.6 0 3.6l-1.2 1.4c-.4.4-.5 1.1-.4 1.6l.5 1.7c.4 1.3-.3 2.7-1.6 3.3l-1.7.7c-.5.2-.9.7-1 1.3l-.3 1.8c-.2 1.4-1.4 2.4-2.8 2.3l-1.8-.1c-.6 0-1.2.2-1.5.7L38 41c-.8 1.1-2.3 1.5-3.5.8l-1.6-.9c-.5-.3-1.1-.3-1.7 0l-1.6.9c-.4.2-.9.4-1.3.4zm-4.7-4.4c.9 0 1.7.4 2.2 1.1l1 1.5c.5.7 1.5.9 2.2.5l1.6-.9c.8-.5 1.8-.5 2.6 0l1.6.9c.8.4 1.7.2 2.2-.5l1-1.5c.5-.8 1.4-1.2 2.4-1.1l1.8.1c.9 0 1.6-.6 1.8-1.4l.3-1.8c.2-.9.8-1.7 1.6-2.1l1.7-.7c.8-.3 1.2-1.2 1-2.1l-.5-1.7c-.3-.9 0-1.9.6-2.6l1.2-1.4c.6-.6.6-1.6 0-2.3l-1.2-1.3c-.6-.7-.9-1.7-.6-2.6l.5-1.7c.2-.8-.2-1.7-1-2.1l-1.7-.7c-.9-.4-1.5-1.1-1.6-2.1L44 9.5c-.1-.9-.9-1.5-1.8-1.4l-1.8.1c-.9.1-1.8-.4-2.4-1.1l-1-1.5c-.5-.7-1.5-.9-2.2-.5l-1.6.9c-.8.5-1.8.5-2.6 0L29 5.1c-.8-.4-1.7-.2-2.2.5l-1 1.5c-.5.8-1.4 1.2-2.4 1.1l-1.8-.1c-.9 0-1.6.6-1.8 1.4l-.3 1.8c-.2.9-.8 1.7-1.6 2.1l-1.7.7c-.8.3-1.2 1.2-1 2.1l.5 1.7c.3.9 0 1.9-.6 2.6l-1.2 1.4c-.6.6-.6 1.6 0 2.3l1.2 1.4c.6.7.9 1.7.6 2.6l-.5 1.7c-.2.8.2 1.7 1 2.1l1.7.7c.9.4 1.5 1.1 1.6 2.1l.3 1.8c.1.9.9 1.5 1.8 1.4l1.8-.1c.1-.1.2-.1.2-.1z"/><path d="M26.1 60c-.1 0-.3 0-.3-.1l-4.3-4.1-5.8 1.4c-.2 0-.4 0-.5-.1-.2-.2-.2-.4-.2-.6L20 38c0-.1.1-.3.3-.3.1-.1.3-.1.4 0 .3.1.6.2.9.2l1.8-.1c.9-.1 1.8.4 2.4 1.1l1 1.5c.5.7 1.5.9 2.2.5l1.6-.9c.2-.1.4-.2.5-.2.2-.1.4 0 .5.1.1.1.2.3.1.5l-5.1 19.2c0 .2-.2.3-.3.4h-.2zm-4.5-5.3c.1 0 .3 0 .3.1l3.9 3.7 4.6-17.3-1 .6c-1.2.7-2.7.3-3.5-.8l-1-1.5c-.3-.5-.9-.7-1.5-.7l-1.8.1c-.3 0-.5 0-.8-.1L16.2 56l5.3-1.3h.1zM41.5 52.9c-.2 0-.4-.1-.5-.4l-3.4-12.4c-.1-.3.1-.5.3-.6.3-.1.5.1.6.3L42 52.2c.1.3-.1.5-.3.6-.1.1-.1.1-.2.1z"/><path d="M37.8 60h-.1c-.2 0-.3-.2-.3-.4l-5.1-19.2c0-.2 0-.4.1-.5s.3-.2.5-.1c.2 0 .3.1.5.2l1.6.9c.8.4 1.7.2 2.2-.5l1-1.5c.5-.8 1.4-1.2 2.4-1.1l1.8.1c.3 0 .6 0 .9-.2.1-.1.3-.1.4 0l.3.3 5 18.5c0 .2 0 .4-.1.5-.1.1-.3.2-.5.1l-5.8-1.4-4.3 4.1c-.3.2-.4.2-.5.2zm-4.4-18.7L38 58.6l3.9-3.7c.1-.1.3-.2.5-.1l5.3 1.3-4.6-17.2c-.3.1-.5.1-.8.1l-1.8-.1c-.6 0-1.2.2-1.5.7l-1 1.5c-.8 1.1-2.3 1.5-3.5.8l-1.1-.6zM30.5 27c-.1 0-.3 0-.4-.1l-4-4c-.2-.2-.2-.5 0-.7s.5-.2.7 0l3.6 3.6 6.6-6.6c.2-.2.5-.2.7 0s.2.5 0 .7l-7 7c.1 0-.1.1-.2.1z"/></svg>