<svg xmlns="http://www.w3.org/2000/svg" viewBox="0 0 64 64"><path fill="#2a2f63" d="M49.14 13.08H25.23c-2.07 0-3.75 1.68-3.75 3.75v16.29h-1.61v-9.23c0-1.71-1.4-3.11-3.11-3.11H3.27c-1.72 0-3.11 1.4-3.11 3.11v19.64c0 1.72 1.39 3.11 3.11 3.11h5.41v3.55c0 1.63 1.33 2.96 2.97 2.96h9.83v1.09a3.75 3.75 0 0 0 3.75 3.74h23.91c2.06 0 3.75-1.68 3.75-3.74V16.83c0-2.07-1.69-3.75-3.75-3.75zm-40.46 23v7.7H3.27c-.13 0-.25-.12-.25-.25V23.89c0-.13.12-.24.25-.24h13.49c.13 0 .24.11.24.24v9.23h-5.35c-1.64 0-2.97 1.33-2.97 2.96zm2.97 14.2c-.06 0-.1-.04-.1-.09V36.08c0-.05.04-.09.1-.09h25.54c.06 0 .1.04.1.09v14.11c0 .05-.04.09-.1.09H11.65zm38.37 3.96c0 .48-.4.87-.88.87H25.23c-.49 0-.88-.39-.88-.87v-1.09h12.84c1.64 0 2.97-1.33 2.97-2.96V36.08c0-1.63-1.33-2.96-2.97-2.96H24.35V16.83c0-.49.39-.89.88-.89h23.91c.48 0 .88.4.88.89v37.41z"/><path fill="#d6e9f2" d="M17 23.89v9.23h-5.35c-1.64 0-2.97 1.33-2.97 2.96v7.7H3.27c-.13 0-.25-.12-.25-.25V23.89c0-.13.12-.24.25-.24h13.49c.13 0 .24.11.24.24z"/><path fill="#d6e9f2" d="M37.19 35.99H11.65c-.06 0-.1.04-.1.09v14.11c0 .05.04.09.1.09h25.54c.06 0 .1-.04.1-.09V36.08c0-.05-.04-.09-.1-.09zM26.56 44.2l-2.15 2.15a1.432 1.432 0 0 1-2.03 0c-.56-.56-.56-1.46 0-2.02l1.14-1.14-1.24-1.25c-.56-.56-.56-1.46 0-2.02s1.46-.56 2.02 0l2.26 2.25c.27.27.42.64.42 1.02s-.15.74-.42 1.01z"/><path fill="#9fd1f0" d="M50.02 16.83v37.41c0 .48-.4.87-.88.87H25.23c-.49 0-.88-.39-.88-.87v-1.09h12.84c1.64 0 2.97-1.33 2.97-2.96V36.08c0-1.63-1.33-2.96-2.97-2.96H24.35V16.83c0-.49.39-.89.88-.89h23.91c.48 0 .88.4.88.89z"/><path fill="#2a2f63" d="M18.6 6.02H1.43C.64 6.02 0 6.66 0 7.45v10.48c0 .79.64 1.43 1.43 1.43H18.6c.79 0 1.43-.64 1.43-1.43V7.45c0-.79-.64-1.43-1.43-1.43zm-1.43 10.47H2.87v-7.6h14.3v7.6z"/><path fill="#d6e9f2" d="M2.87 8.89v7.6h14.3v-7.6H2.87zm9.29 4.87L10 15.91c-.28.28-.64.42-1.01.42s-.73-.14-1.01-.42c-.56-.56-.56-1.47 0-2.03l1.14-1.14-1.25-1.24A1.436 1.436 0 0 1 9.9 9.47l2.26 2.26c.56.56.56 1.47 0 2.03z"/><path fill="#2a2f63" d="M12.16 13.76 10 15.91c-.28.28-.64.42-1.01.42s-.73-.14-1.01-.42c-.56-.56-.56-1.47 0-2.03l1.14-1.14-1.25-1.24A1.436 1.436 0 0 1 9.9 9.47l2.26 2.26c.56.56.56 1.47 0 2.03zm14.82 29.43c0 .38-.15.74-.42 1.01l-2.15 2.15a1.432 1.432 0 0 1-2.03 0c-.56-.56-.56-1.46 0-2.02l1.14-1.14-1.24-1.25c-.56-.56-.56-1.46 0-2.02s1.46-.56 2.02 0l2.26 2.25c.27.27.42.64.42 1.02zM63.9 22.17v-.02l-2.87-7.21a1.45 1.45 0 0 0-1.31-.9h-.02c-.57 0-1.08.33-1.31.85l-3.21 7.21-.01.01c-.03.07-.05.15-.07.22 0 .02-.01.04-.02.06-.02.09-.03.19-.03.29v29.86c0 2.47 2.01 4.48 4.48 4.48 2.46 0 4.47-2.01 4.47-4.48V22.68c0-.18-.04-.35-.1-.51zm-4.28-3.01.83 2.09h-1.76l.93-2.09zm1.51 33.38c0 .89-.72 1.61-1.6 1.61-.89 0-1.61-.72-1.61-1.61v-.72h3.21v.72zm0-3.59h-3.21V24.11h3.21v24.84z"/><path fill="#ffe4aa" d="M60.45 21.25h-1.76l.93-2.09z"/><path fill="#53be9e" d="M61.13 51.82v.72c0 .89-.72 1.61-1.6 1.61-.89 0-1.61-.72-1.61-1.61v-.72h3.21z"/><path fill="#f16e61" d="M57.92 24.11h3.21v24.84h-3.21z"/></svg>