<svg xmlns="http://www.w3.org/2000/svg" enable-background="new 0 0 160 160" viewBox="0 0 160 160"><path d="M153.991,106.804c-3.951-6.51-11.783-8.764-18.271-5.297l-24.248,10.583c-1.212-2.988-3.71-5.337-6.908-6.118l-15.355-3.748
	c-5.572-1.359-10.778-3.851-15.474-7.403c-9.492-7.176-22.289-6.542-31.124,1.547c-1.081,0.99-2.438,1.535-3.821,1.535h-3.294
	c-0.161,0-0.315,0.026-0.471,0.047v-4.606c0-1.933-1.567-3.5-3.5-3.5H9c-1.933,0-3.5,1.567-3.5,3.5v49.852
	c0,1.933,1.567,3.5,3.5,3.5h22.525c1.933,0,3.5-1.567,3.5-3.5v-7.656c0.155,0.021,0.309,0.047,0.471,0.047h10.985
	c2.47,0,4.941,0.321,7.346,0.955l33.926,8.94c0.125,0.032,0.251,0.059,0.379,0.077c1.2,0.178,2.4,0.267,3.597,0.267
	c2.371,0,4.728-0.349,7.039-1.044c0.291-0.087,0.569-0.213,0.828-0.372l53.24-32.811
	C154.474,110.591,154.99,108.449,153.991,106.804z M28.025,139.696H12.5V96.844h15.525V139.696z M96.331,138.201
	c-2.293,0.629-4.643,0.784-6.99,0.461l-33.73-8.889c-2.985-0.786-6.057-1.186-9.129-1.186H35.496c-0.161,0-0.315,0.026-0.471,0.047
	v-23.779c0.155,0.021,0.309,0.047,0.471,0.047h3.294c3.137,0,6.172-1.197,8.548-3.372c6.304-5.771,15.421-6.233,22.174-1.126
	c5.462,4.132,11.53,7.032,18.036,8.62l15.355,3.748c1.577,0.385,2.617,2.219,2.319,4.088c-0.121,0.76-0.629,1.486-0.946,1.747
	l-27.989-4.147c-1.922-0.296-3.692,1.037-3.975,2.949c-0.283,1.912,1.037,3.691,2.949,3.975l28.288,4.192
	c0.303,0.045,0.602,0.066,0.897,0.066c3.341,0,6.135-2.774,7.261-6.018l26.947-11.762c0.098-0.043,0.193-0.09,0.286-0.142
	c2.169-1.191,4.603-1.064,6.58,0.162L96.331,138.201z"/><ellipse cx="19.839" cy="130.882" rx="2.927" ry="2.922" transform="rotate(-89.748 19.836 130.88)"/><path d="M106.625,94.979c0.315,0.091,0.641,0.136,0.965,0.136s0.648-0.045,0.964-0.136c12.353-3.537,30.629-17.066,30.629-34.869
	V29.335c0-1.933-1.567-3.5-3.5-3.5c-16.982,0-24.836-10.612-25.151-11.05c-0.656-0.929-1.722-1.481-2.859-1.481
	s-2.203,0.553-2.859,1.481c-0.078,0.111-7.998,11.05-25.144,11.05c-1.933,0-3.5,1.567-3.5,3.5V60.11
	C76.168,77.941,94.342,91.459,106.625,94.979z M83.168,32.704c12.563-0.95,20.579-6.865,24.503-10.667
	c3.924,3.802,11.943,9.718,24.511,10.667V60.11c0,14.197-15.499,24.821-24.592,27.841c-9.033-3.008-24.422-13.616-24.422-27.841
	V32.704z"/><path d="M96.036,77.129c0.002,0.002,0.004,0.005,0.006,0.008c0.099,0.099,0.207,0.185,0.319,0.259
	c3.523,2.886,7.408,5.012,10.682,6.094c0.205,0.068,0.417,0.102,0.628,0.102c0.415,0,0.826-0.13,1.171-0.379
	c0.521-0.376,0.829-0.979,0.829-1.621V57.256h17.438c1.104,0,2-0.896,2-2V37.372c0-1.026-0.776-1.885-1.797-1.99
	c-1.376-0.141-2.721-0.359-4.026-0.656c-0.241-0.051-0.482-0.11-0.73-0.172c-0.492-0.119-0.961-0.246-1.451-0.394
	c-0.468-0.136-0.929-0.287-1.362-0.434c-5.044-1.743-8.618-4.384-10.729-6.292c-0.587-0.53-1.43-0.665-2.152-0.344
	c-0.723,0.321-1.188,1.038-1.188,1.828v24.337h-17.43c-1.104,0-2,0.896-2,2v4.069C86.242,66.374,90.677,72.637,96.036,77.129z
	 M90.242,59.325v-2.069h3.367l-3.293,3.293C90.277,60.142,90.242,59.735,90.242,59.325z M103.352,57.256L92.914,67.694
	c-0.545-0.866-1.022-1.757-1.416-2.671l7.767-7.767H103.352z M105.671,60.593v4.086l-8.307,8.307
	c-0.707-0.657-1.388-1.343-2.025-2.062L105.671,60.593z M100.469,75.538l5.203-5.203v8.302
	C103.958,77.835,102.182,76.782,100.469,75.538z M125.109,41.155v4.086l-8.014,8.014h-4.087L125.109,41.155z M122.751,53.256
	l2.358-2.358v2.358H122.751z M109.671,50.936v-4.087l9.133-9.133c0.023-0.023,0.038-0.049,0.059-0.073
	c0.368,0.122,0.739,0.246,1.106,0.352c0.541,0.163,1.08,0.309,1.631,0.442c0.156,0.039,0.306,0.072,0.461,0.108L109.671,50.936z
	 M114.83,36.035l-5.158,5.158v-8.14C111.123,34.064,112.844,35.097,114.83,36.035z"/></svg>