<svg xmlns="http://www.w3.org/2000/svg" width="163.839" height="163.839" fill-rule="evenodd" clip-rule="evenodd" image-rendering="optimizeQuality" shape-rendering="geometricPrecision" text-rendering="geometricPrecision" viewBox="0 0 43349 43349"><path fill="#2b2a29" d="M5923 38980l13145 0c295,-719 872,-1292 1593,-1583l0 -6203c-90,-36 -177,-77 -263,-122l-13011 0 0 -339 0 -1816 0 -7093 0 -2155 0 -6199 0 -2155 0 -7130 0 -2155 2155 0 24393 0 2155 0 0 2155 0 7130 0 2155 0 6199 0 2155 0 7093 0 1816 0 339 -13011 0c-85,45 -173,85 -262,122l0 6203c721,291 1298,864 1593,1583l13145 0c440,-1031 1463,-1755 2656,-1755 1594,0 2886,1292 2886,2886 0,1594 -1292,2886 -2886,2886 -1233,0 -2286,-774 -2699,-1863l-13087 0c-422,1070 -1465,1827 -2685,1827 -1220,0 -2263,-757 -2685,-1827l-13087 0c-413,1089 -1465,1863 -2699,1863 -1594,0 -2886,-1292 -2886,-2886 0,-1594 1292,-2886 2886,-2886 1192,0 2216,723 2656,1755zm5592 -15330l3048 0 0 3048 -3048 0 0 -3048zm20320 0l-16002 0 0 3048 16002 0 0 -3048zm-20320 -8608l3048 0 0 3048 -3048 0 0 -3048zm20320 0l-16002 0 0 3048 16002 0 0 -3048zm-20320 -8777l3048 0 0 3048 -3048 0 0 -3048zm20320 0l-16002 0 0 3048 16002 0 0 -3048zm2100 5052l-24393 0 0 -7130 24393 0 0 7130zm-24393 2155l24393 0 0 6199 -24393 0 0 -6199zm0 8354l24393 0 0 7093 -24393 0 0 -7093z"/></svg>